<?xml version="1.0" standalone="no"?>
 <!DOCTYPE svg PUBLIC "-//W3C//DTD SVG 1.1//EN" 
 "http://www.w3.org/Graphics/SVG/1.1/DTD/svg11.dtd"> 
<svg
  xmlns:svg="http://www.w3.org/2000/svg"
  xmlns="http://www.w3.org/2000/svg"
  xmlns:xlink="http://www.w3.org/1999/xlink"
  version="1.1"
  width="61.0362mm" height="38.1762mm" viewBox="0.0000 0.0000 61.0362 38.1762">
<title>SVG Image created as slimevr-F_Silkscreen.svg date 2023/11/17 19:21:03 </title>
  <desc>Image generated by PCBNEW </desc>
<g style="fill:#000000; fill-opacity:1.0000;stroke:#000000; stroke-opacity:1.0000;
stroke-linecap:round; stroke-linejoin:round;"
 transform="translate(0 0) scale(1 1)">
</g>
<g style="fill:#000000; fill-opacity:0.0; 
stroke:#000000; stroke-width:0.0000; stroke-opacity:1; 
stroke-linecap:round; stroke-linejoin:round;">
</g>
<g style="fill:#000000; fill-opacity:1.0000; 
stroke:#000000; stroke-width:0.0212; stroke-opacity:1; 
stroke-linecap:round; stroke-linejoin:round;">
<rect x="-5.000000" y="-5.000000" width="71.060000" height="48.200000" rx="0.000000" />
</g>
<g style="fill:#FFFFFF; fill-opacity:1.0000; 
stroke:#FFFFFF; stroke-width:0.0212; stroke-opacity:1; 
stroke-linecap:round; stroke-linejoin:round;">
</g>
<g style="fill:#FFFFFF; fill-opacity:1.0000; 
stroke:#FFFFFF; stroke-width:0.1000; stroke-opacity:1; 
stroke-linecap:round; stroke-linejoin:round;">
</g>
<g style="fill:#FFFFFF; fill-opacity:0.0; 
stroke:#FFFFFF; stroke-width:0.1000; stroke-opacity:1; 
stroke-linecap:round; stroke-linejoin:round;">
<g transform="rotate(-90.000000 18.5450 24.9000)">
<text x="18.5450" y="25.4000"
textLength="3.1000" font-size="1.3333" lengthAdjust="spacingAndGlyphs"
text-anchor="middle" opacity="0">UC1</text>
</g>
<g class="stroked-text"><desc>UC1</desc>
<path d="M18.0024 26.1619
L18.8119 26.1619
" />
<path d="M18.8119 26.1619
L18.9072 26.1143
" />
<path d="M18.9072 26.1143
L18.9548 26.0667
" />
<path d="M18.9548 26.0667
L19.0024 25.9714
" />
<path d="M19.0024 25.9714
L19.0024 25.7810
" />
<path d="M19.0024 25.7810
L18.9548 25.6857
" />
<path d="M18.9548 25.6857
L18.9072 25.6381
" />
<path d="M18.9072 25.6381
L18.8119 25.5905
" />
<path d="M18.8119 25.5905
L18.0024 25.5905
" />
<path d="M18.9072 24.5429
L18.9548 24.5905
" />
<path d="M18.9548 24.5905
L19.0024 24.7333
" />
<path d="M19.0024 24.7333
L19.0024 24.8286
" />
<path d="M19.0024 24.8286
L18.9548 24.9714
" />
<path d="M18.9548 24.9714
L18.8596 25.0667
" />
<path d="M18.8596 25.0667
L18.7643 25.1143
" />
<path d="M18.7643 25.1143
L18.5738 25.1619
" />
<path d="M18.5738 25.1619
L18.4310 25.1619
" />
<path d="M18.4310 25.1619
L18.2405 25.1143
" />
<path d="M18.2405 25.1143
L18.1453 25.0667
" />
<path d="M18.1453 25.0667
L18.0500 24.9714
" />
<path d="M18.0500 24.9714
L18.0024 24.8286
" />
<path d="M18.0024 24.8286
L18.0024 24.7333
" />
<path d="M18.0024 24.7333
L18.0500 24.5905
" />
<path d="M18.0500 24.5905
L18.0977 24.5429
" />
<path d="M19.0024 23.5905
L19.0024 24.1619
" />
<path d="M19.0024 23.8762
L18.0024 23.8762
" />
<path d="M18.0024 23.8762
L18.1453 23.9714
" />
<path d="M18.1453 23.9714
L18.2405 24.0667
" />
<path d="M18.2405 24.0667
L18.2881 24.1619
" />
</g><g transform="rotate(-180.000000 50.4700 33.5950)">
<text x="50.4700" y="34.0950"
textLength="2.1000" font-size="1.3333" lengthAdjust="spacingAndGlyphs"
text-anchor="middle" opacity="0">U1</text>
</g>
<g class="stroked-text"><desc>U1</desc>
<path d="M51.2319 34.1376
L51.2319 33.3281
" />
<path d="M51.2319 33.3281
L51.1843 33.2328
" />
<path d="M51.1843 33.2328
L51.1367 33.1852
" />
<path d="M51.1367 33.1852
L51.0414 33.1376
" />
<path d="M51.0414 33.1376
L50.8510 33.1376
" />
<path d="M50.8510 33.1376
L50.7557 33.1852
" />
<path d="M50.7557 33.1852
L50.7081 33.2328
" />
<path d="M50.7081 33.2328
L50.6605 33.3281
" />
<path d="M50.6605 33.3281
L50.6605 34.1376
" />
<path d="M49.6605 33.1376
L50.2319 33.1376
" />
<path d="M49.9462 33.1376
L49.9462 34.1376
" />
<path d="M49.9462 34.1376
L50.0414 33.9947
" />
<path d="M50.0414 33.9947
L50.1367 33.8995
" />
<path d="M50.1367 33.8995
L50.2319 33.8519
" />
</g><g transform="rotate(-270.000000 16.6644 5.3556)">
<text x="16.6644" y="5.8556"
textLength="2.0048" font-size="1.3333" lengthAdjust="spacingAndGlyphs"
text-anchor="middle" opacity="0">S1</text>
</g>
<g class="stroked-text"><desc>S1</desc>
<path d="M16.2546 4.5936
L16.2070 4.7365
" />
<path d="M16.2070 4.7365
L16.2070 4.9746
" />
<path d="M16.2070 4.9746
L16.2546 5.0698
" />
<path d="M16.2546 5.0698
L16.3023 5.1175
" />
<path d="M16.3023 5.1175
L16.3975 5.1651
" />
<path d="M16.3975 5.1651
L16.4927 5.1651
" />
<path d="M16.4927 5.1651
L16.5880 5.1175
" />
<path d="M16.5880 5.1175
L16.6356 5.0698
" />
<path d="M16.6356 5.0698
L16.6832 4.9746
" />
<path d="M16.6832 4.9746
L16.7308 4.7841
" />
<path d="M16.7308 4.7841
L16.7784 4.6889
" />
<path d="M16.7784 4.6889
L16.8261 4.6413
" />
<path d="M16.8261 4.6413
L16.9213 4.5936
" />
<path d="M16.9213 4.5936
L17.0165 4.5936
" />
<path d="M17.0165 4.5936
L17.1118 4.6413
" />
<path d="M17.1118 4.6413
L17.1594 4.6889
" />
<path d="M17.1594 4.6889
L17.2070 4.7841
" />
<path d="M17.2070 4.7841
L17.2070 5.0222
" />
<path d="M17.2070 5.0222
L17.1594 5.1651
" />
<path d="M16.2070 6.1175
L16.2070 5.5460
" />
<path d="M16.2070 5.8317
L17.2070 5.8317
" />
<path d="M17.2070 5.8317
L17.0642 5.7365
" />
<path d="M17.0642 5.7365
L16.9689 5.6413
" />
<path d="M16.9689 5.6413
L16.9213 5.5460
" />
</g><g transform="rotate(-90.000000 38.1939 12.7546)">
<text x="38.1939" y="13.2546"
textLength="2.0524" font-size="1.3333" lengthAdjust="spacingAndGlyphs"
text-anchor="middle" opacity="0">R1</text>
</g>
<g class="stroked-text"><desc>R1</desc>
<path d="M38.6513 12.9212
L38.1751 13.2546
" />
<path d="M38.6513 13.4927
L37.6513 13.4927
" />
<path d="M37.6513 13.4927
L37.6513 13.1117
" />
<path d="M37.6513 13.1117
L37.6989 13.0165
" />
<path d="M37.6989 13.0165
L37.7465 12.9689
" />
<path d="M37.7465 12.9689
L37.8418 12.9212
" />
<path d="M37.8418 12.9212
L37.9846 12.9212
" />
<path d="M37.9846 12.9212
L38.0799 12.9689
" />
<path d="M38.0799 12.9689
L38.1275 13.0165
" />
<path d="M38.1275 13.0165
L38.1751 13.1117
" />
<path d="M38.1751 13.1117
L38.1751 13.4927
" />
<path d="M38.6513 11.9689
L38.6513 12.5403
" />
<path d="M38.6513 12.2546
L37.6513 12.2546
" />
<path d="M37.6513 12.2546
L37.7941 12.3498
" />
<path d="M37.7941 12.3498
L37.8894 12.4451
" />
<path d="M37.8894 12.4451
L37.9370 12.5403
" />
</g><text x="38.8853" y="28.0170"
textLength="2.0524" font-size="1.3333" lengthAdjust="spacingAndGlyphs"
text-anchor="middle" opacity="0">D1</text>
<g class="stroked-text"><desc>D1</desc>
<path d="M38.1472 27.9745
L38.1472 26.9745
" />
<path d="M38.1472 26.9745
L38.3853 26.9745
" />
<path d="M38.3853 26.9745
L38.5282 27.0221
" />
<path d="M38.5282 27.0221
L38.6234 27.1173
" />
<path d="M38.6234 27.1173
L38.6711 27.2126
" />
<path d="M38.6711 27.2126
L38.7187 27.4030
" />
<path d="M38.7187 27.4030
L38.7187 27.5459
" />
<path d="M38.7187 27.5459
L38.6711 27.7364
" />
<path d="M38.6711 27.7364
L38.6234 27.8316
" />
<path d="M38.6234 27.8316
L38.5282 27.9268
" />
<path d="M38.5282 27.9268
L38.3853 27.9745
" />
<path d="M38.3853 27.9745
L38.1472 27.9745
" />
<path d="M39.6711 27.9745
L39.0996 27.9745
" />
<path d="M39.3853 27.9745
L39.3853 26.9745
" />
<path d="M39.3853 26.9745
L39.2901 27.1173
" />
<path d="M39.2901 27.1173
L39.1949 27.2126
" />
<path d="M39.1949 27.2126
L39.0996 27.2602
" />
</g><path d="M0.7650 37.6000
L35.2650 37.6000
" />
<path d="M0.7650 37.6000
L0.7650 29.6000
" />
<path d="M35.2650 37.6000
L35.2650 12.0000
" />
<path d="M0.7650 20.6000
L0.7650 14.6000
" />
<path d="M0.7650 14.6000
L2.1650 14.6000
" />
<path d="M8.2650 14.6000
L6.6650 14.6000
" />
<path d="M8.2650 14.6000
L8.2650 12.0000
" />
<path d="M35.2650 12.0000
L8.2650 12.0000
" />
<path d="M1.4650 36.9000
L7.4650 36.9000
" />
<path d="M7.4650 36.9000
L7.4650 32.5500
" />
<path d="M7.4650 32.5500
L1.4650 32.5500
" />
<path d="M1.4650 32.5500
L1.4650 36.9000
" />
<path d="M0.5650 29.6000
L8.1650 29.6000
" />
<path d="M8.1650 29.6000
L8.1650 20.6000
" />
<path d="M8.1650 20.6000
L0.5650 20.6000
" />
<path d="M0.5650 20.6000
L0.5650 29.6000
" />
<path d="M2.1650 16.6000
L6.6650 16.6000
" />
<path d="M6.6650 16.6000
L6.6650 13.3500
" />
<path d="M6.6650 13.3500
L2.1650 13.3500
" />
<path d="M2.1650 13.3500
L2.1650 16.6000
" />
<circle cx="32.0900" cy="35.0750" r="0.9250" /> 
<circle cx="32.0900" cy="14.5250" r="0.9250" /> 
<path d="M59.2500 36.1350
L59.2500 8.2850
" />
<path d="M59.2500 36.1350
L55.2500 36.1350
" />
<path d="M42.2500 36.1350
L46.2500 36.1350
" />
<path d="M42.2500 8.2850
L59.2500 8.2850
" />
<path d="M42.2500 8.2850
L42.2500 36.1350
" />
<path d="M46.2500 37.5350
L55.2500 37.5350
" />
<path d="M55.2500 37.5350
L55.2500 30.5350
" />
<path d="M55.2500 30.5350
L46.2500 30.5350
" />
<path d="M46.2500 30.5350
L46.2500 37.5350
" />
<path d="M17.8600 8.7050
L2.3600 8.7050
" />
<path d="M2.3600 8.7050
L2.3600 1.3550
" />
<path d="M2.3600 1.3550
L17.8600 1.3550
" />
<path d="M17.8600 1.3550
L17.8600 8.7050
" />
<path d="M37.0250 15.7500
L39.2750 15.7500
" />
<path d="M39.2750 15.7500
L39.2750 9.7500
" />
<path d="M39.2750 9.7500
L37.0250 9.7500
" />
<path d="M37.0250 9.7500
L37.0250 15.7500
" />
<path d="M36.3650 33.5500
L41.6150 33.5500
" />
<path d="M41.6150 33.5500
L41.6150 24.7500
" />
<path d="M41.6150 24.7500
L36.3650 24.7500
" />
<path d="M36.3650 24.7500
L36.3650 33.5500
" />
<path d="M36.3775 26.7500
L41.6275 26.7500
" />
<path d="M41.6275 26.7500
L41.6275 24.7500
" />
<path d="M41.6275 24.7500
L36.3775 24.7500
" />
<path d="M36.3775 24.7500
L36.3775 26.7500
" />
</g>
<g style="fill:#FFFFFF; fill-opacity:1.0000; 
stroke:#FFFFFF; stroke-width:0.0212; stroke-opacity:1; 
stroke-linecap:round; stroke-linejoin:round;">
<path style="fill:#FFFFFF; fill-opacity:1.0000; 
stroke:#FFFFFF; stroke-width:0.0000; stroke-opacity:1; 
stroke-linecap:round; stroke-linejoin:round;fill-rule:evenodd;"
d="M 36.3775,26.7500
41.6275,26.7500
41.6275,24.7500
36.3775,24.7500
" /> 
<g >
</g>
<g >
</g>
<g >
</g>
<g >
</g>
<g >
</g>
<g >
</g>
<g >
</g>
<g >
</g>
</g>
<g style="fill:#FFFFFF; fill-opacity:1.0000; 
stroke:#FFFFFF; stroke-width:0.0212; stroke-opacity:1; 
stroke-linecap:round; stroke-linejoin:round;">
</g>
<g style="fill:#FFFFFF; fill-opacity:1.0000; 
stroke:#FFFFFF; stroke-width:0.1000; stroke-opacity:1; 
stroke-linecap:round; stroke-linejoin:round;">
</g>
<g style="fill:#FFFFFF; fill-opacity:0.0; 
stroke:#FFFFFF; stroke-width:0.1000; stroke-opacity:1; 
stroke-linecap:round; stroke-linejoin:round;">
<path d="M61.0100 0.0500
L61.0100 38.1500
" />
<path d="M0.0500 38.1500
L0.0500 0.0500
" />
<path d="M0.0500 0.0500
L61.0100 0.0500
" />
<path d="M61.0100 38.1500
L0.0500 38.1500
" />
<g >
</g>
<g >
</g>
<g >
</g>
<g >
</g>
<g >
</g>
<g >
</g>
<g >
</g>
<g >
</g>
</g> 
</svg>
